# xmcd
#
# Track frame offsets:
#	150
#	14872
#	33215
#	46627
#	69470
#	86278
#	105543
#	130003
#	148536
#	161707
#
# Disc length: 2437 seconds
#
# Revision: 1
# Processed by: cddbd v1.5.2PL0 Copyright (c) Steve Scherf et al.
# Submitted via: audiograbber 1.83.01
#
DISCID=7909830a
DTITLE=Brisbane's Urban Blues and Roots Festival - Sampler
DYEAR=2011
DGENRE=Blues
TTITLE0=Blackwater Fever - Blackwater
TTITLE1=Dallas Frasca Duo - The Rose
TTITLE2=Nathan Kaye - Change (Don't Just Do Something...Sit There
TTITLE3=Mojo Webb - A Man Like Me
TTITLE4=King Rat - Morphine Dream
TTITLE5=Freeway - Lyin' On The Truth
TTITLE6=Geoff Turnbull - Colour
TTITLE7=Blues Arcane - Cyber Dot Com
TTITLE8=The Vasco Era - Don't Go To Sleep
TTITLE9=Mark Easton Limosine - Nervous Breakdown
EXTD=
EXTT0=
EXTT1=
EXTT2=
EXTT3=
EXTT4=
EXTT5=
EXTT6=
EXTT7=
EXTT8=
EXTT9=
PLAYORDER=
